<svg width="64" height="64" viewBox="0 0 64 64" fill="none" xmlns="http://www.w3.org/2000/svg">
<path d="M59.52 64H4.48C2.048 64 0 61.9561 0 59.5289V4.47106C0 2.04391 1.92 0 4.48 0H59.648C61.952 0 64 2.04391 64 4.47106V59.5289C64 61.9561 62.08 64 59.52 64Z" fill="white"/>
<path fill-rule="evenodd" clip-rule="evenodd" d="M59.52 0H4.48C2.048 0 0 2.0521 0 4.48898V22.0601L30.464 13.0822C31.616 18.2124 29.056 23.3427 24.704 24.6253L2.56 31.1663L0 31.9359V42.4529L21.12 36.2966L39.168 31.0381L21.12 36.2966L40.32 30.6533C44.8 29.3707 49.536 32.5772 50.816 37.8357C51.456 40.2725 51.2 42.9659 50.176 45.2745C49.664 46.3006 49.024 47.3267 48.128 48.0962C47.232 48.8657 46.208 49.507 45.184 49.7635L39.936 51.3026L40.704 51.0461L36.224 52.3287C37.376 57.4589 34.816 62.5892 30.464 63.8717L29.952 64H59.648C62.08 64 64 62.0762 64 59.6393V4.48898C64 2.0521 61.952 0 59.52 0ZM3.328 63.8717C1.408 63.3587 0 61.6914 0 59.6393V52.3287L7.296 50.1483L25.6 44.8898C26.624 44.6333 27.776 44.505 28.928 44.7615C30.08 45.018 31.104 45.4028 32 46.0441C34.048 47.4549 35.456 49.6353 36.096 52.0721C36.096 52.2004 36.096 52.2004 36.096 52.3287V52.4569L39.808 51.4309L36.096 52.4569L25.856 55.4068L7.68 60.6653C6.528 61.0501 5.504 61.5631 4.736 62.3327C4.224 62.8457 3.712 63.3587 3.328 63.8717ZM0 31.9359L2.56 31.1663L0 31.9359Z" fill="#0075E0"/>
</svg>
